# Blender v2.79 (sub 0) OBJ File: ''
# www.blender.org
mtllib cube.mtl
o Cube
v -15.230690 -12.815321 4.318604
v 8.247307 -12.815321 4.359024
v 8.243862 -12.815321 6.359021
v -15.234137 -12.815321 6.318602
v -15.230684 12.815321 4.318604
v 8.247313 12.815321 4.359025
v 8.243860 12.815321 6.359021
v -15.234133 12.815321 6.318602
vn 0.0000 -1.0000 0.0000
vn 0.0000 1.0000 -0.0000
vn 0.0017 -0.0000 -1.0000
vn 1.0000 -0.0000 0.0017
vn -0.0017 -0.0000 1.0000
vn -1.0000 0.0000 -0.0017
usemtl Material
s off
f 1//1 3//1 4//1
f 5//2 7//2 6//2
f 5//3 2//3 1//3
f 6//4 3//4 2//4
f 7//5 4//5 3//5
f 1//6 8//6 5//6
f 1//1 2//1 3//1
f 5//2 8//2 7//2
f 5//3 6//3 2//3
f 6//4 7//4 3//4
f 7//5 8//5 4//5
f 1//6 4//6 8//6
