# Blender v2.79 (sub 0) OBJ File: ''
# www.blender.org
mtllib wall.mtl
o Cube
v -0.359617 -0.044388 -0.394754
v -0.359617 -0.044388 0.394754
v -0.448393 -0.044388 0.394754
v -0.448393 -0.044388 -0.394754
v -0.359617 0.044388 -0.394754
v -0.359617 0.044388 0.394754
v -0.448393 0.044388 0.394754
v -0.448393 0.044388 -0.394754
v -0.359617 -0.044388 -0.478460
v -0.448393 -0.044388 -0.478461
v -0.359617 0.044388 -0.478460
v -0.359617 -0.044388 0.478460
v -0.448393 -0.044388 0.478460
v -0.359617 0.044388 0.478461
v -0.448393 0.044388 0.478460
v -0.448393 0.044388 -0.478460
v 0.343293 -0.044388 -0.394754
v 0.343293 0.044388 -0.394754
v 0.343293 -0.044388 0.394754
v 0.343293 0.044388 0.394754
v 0.343293 -0.044388 -0.478460
v 0.343293 0.044388 -0.478460
v 0.343293 -0.044388 0.478460
v 0.343293 0.044388 0.478461
v 0.440066 -0.044388 -0.394754
v 0.440066 0.044388 -0.394754
v 0.440066 -0.044388 0.394754
v 0.440066 0.044388 0.394754
v 0.440066 -0.044388 -0.478460
v 0.440066 0.044388 -0.478460
v 0.440066 -0.044388 0.478460
v 0.440066 0.044388 0.478461
v 0.343293 -0.044388 -0.079338
v 0.343293 0.044388 -0.079338
v 0.343293 -0.044388 0.079339
v 0.343293 0.044388 0.079339
v 0.440066 -0.044388 -0.079338
v 0.440066 0.044388 -0.079338
v 0.440066 -0.044388 0.079339
v 0.440066 0.044388 0.079339
vn 0.0000 -1.0000 -0.0000
vn 0.0000 1.0000 0.0000
vn 1.0000 -0.0000 0.0000
vn 0.0000 -0.0000 1.0000
vn -1.0000 0.0000 -0.0000
vn 0.0000 0.0000 -1.0000
usemtl Material
s off
f 1//1 3//1 4//1
f 5//2 7//2 6//2
f 5//3 2//3 1//3
f 12//4 24//4 14//4
f 7//5 4//5 3//5
f 6//6 19//6 2//6
f 14//4 13//4 12//4
f 11//6 10//6 16//6
f 8//2 11//2 16//2
f 4//5 16//5 10//5
f 2//1 13//1 3//1
f 4//1 9//1 1//1
f 6//2 15//2 14//2
f 3//5 15//5 7//5
f 19//1 31//1 23//1
f 18//2 30//2 22//2
f 1//4 18//4 5//4
f 11//6 21//6 9//6
f 9//1 17//1 1//1
f 14//2 20//2 6//2
f 5//2 22//2 11//2
f 2//1 23//1 12//1
f 25//3 30//3 26//3
f 28//3 31//3 27//3
f 23//4 32//4 24//4
f 28//2 36//2 20//2
f 21//1 25//1 17//1
f 24//2 28//2 20//2
f 22//6 29//6 21//6
f 25//1 33//1 17//1
f 36//6 39//6 35//6
f 33//4 38//4 34//4
f 26//3 37//3 25//3
f 19//5 36//5 35//5
f 27//3 40//3 28//3
f 19//1 39//1 27//1
f 18//2 38//2 26//2
f 18//5 33//5 34//5
f 1//1 2//1 3//1
f 5//2 8//2 7//2
f 5//3 6//3 2//3
f 12//4 23//4 24//4
f 7//5 8//5 4//5
f 6//6 20//6 19//6
f 14//4 15//4 13//4
f 11//6 9//6 10//6
f 8//2 5//2 11//2
f 4//5 8//5 16//5
f 2//1 12//1 13//1
f 4//1 10//1 9//1
f 6//2 7//2 15//2
f 3//5 13//5 15//5
f 19//1 27//1 31//1
f 18//2 26//2 30//2
f 1//4 17//4 18//4
f 11//6 22//6 21//6
f 9//1 21//1 17//1
f 14//2 24//2 20//2
f 5//2 18//2 22//2
f 2//1 19//1 23//1
f 25//3 29//3 30//3
f 28//3 32//3 31//3
f 23//4 31//4 32//4
f 28//2 40//2 36//2
f 21//1 29//1 25//1
f 24//2 32//2 28//2
f 22//6 30//6 29//6
f 25//1 37//1 33//1
f 36//6 40//6 39//6
f 33//4 37//4 38//4
f 26//3 38//3 37//3
f 19//5 20//5 36//5
f 27//3 39//3 40//3
f 19//1 35//1 39//1
f 18//2 34//2 38//2
f 18//5 17//5 33//5
